<mxfile host="app.diagrams.net" agent="Mozilla/5.0 (Windows NT 10.0; Win64; x64) AppleWebKit/537.36 (KHTML, like Gecko) Chrome/131.0.0.0 Safari/537.36 Edg/131.0.0.0" version="24.9.0">
  <diagram id="C5RBs43oDa-KdzZeNtuy" name="Page-1">
    <mxGraphModel dx="4216" dy="1911" grid="1" gridSize="10" guides="1" tooltips="1" connect="1" arrows="1" fold="1" page="1" pageScale="1" pageWidth="827" pageHeight="1169" math="0" shadow="0">
      <root>
        <mxCell id="WIyWlLk6GJQsqaUBKTNV-0" />
        <mxCell id="WIyWlLk6GJQsqaUBKTNV-1" parent="WIyWlLk6GJQsqaUBKTNV-0" />
        <mxCell id="Kcbh_COPr04Var9moPHK-11" value="" style="edgeStyle=orthogonalEdgeStyle;rounded=0;orthogonalLoop=1;jettySize=auto;html=1;" edge="1" parent="WIyWlLk6GJQsqaUBKTNV-1" source="zkfFHV4jXpPFQw0GAbJ--0" target="Kcbh_COPr04Var9moPHK-4">
          <mxGeometry relative="1" as="geometry" />
        </mxCell>
        <mxCell id="zkfFHV4jXpPFQw0GAbJ--0" value="UserManagement" style="swimlane;fontStyle=2;align=center;verticalAlign=top;childLayout=stackLayout;horizontal=1;startSize=26;horizontalStack=0;resizeParent=1;resizeLast=0;collapsible=1;marginBottom=0;rounded=0;shadow=0;strokeWidth=1;" parent="WIyWlLk6GJQsqaUBKTNV-1" vertex="1">
          <mxGeometry x="160" y="120" width="320" height="200" as="geometry">
            <mxRectangle x="230" y="140" width="160" height="26" as="alternateBounds" />
          </mxGeometry>
        </mxCell>
        <mxCell id="zkfFHV4jXpPFQw0GAbJ--1" value="Users:dict" style="text;align=left;verticalAlign=top;spacingLeft=4;spacingRight=4;overflow=hidden;rotatable=0;points=[[0,0.5],[1,0.5]];portConstraint=eastwest;" parent="zkfFHV4jXpPFQw0GAbJ--0" vertex="1">
          <mxGeometry y="26" width="320" height="26" as="geometry" />
        </mxCell>
        <mxCell id="zkfFHV4jXpPFQw0GAbJ--4" value="" style="line;html=1;strokeWidth=1;align=left;verticalAlign=middle;spacingTop=-1;spacingLeft=3;spacingRight=3;rotatable=0;labelPosition=right;points=[];portConstraint=eastwest;" parent="zkfFHV4jXpPFQw0GAbJ--0" vertex="1">
          <mxGeometry y="52" width="320" height="8" as="geometry" />
        </mxCell>
        <mxCell id="zkfFHV4jXpPFQw0GAbJ--5" value="Create_user(email:str,password:str) -&gt; str" style="text;align=left;verticalAlign=top;spacingLeft=4;spacingRight=4;overflow=hidden;rotatable=0;points=[[0,0.5],[1,0.5]];portConstraint=eastwest;" parent="zkfFHV4jXpPFQw0GAbJ--0" vertex="1">
          <mxGeometry y="60" width="320" height="26" as="geometry" />
        </mxCell>
        <mxCell id="Kcbh_COPr04Var9moPHK-0" value="delete_user(email: str) -&amp;gt; str" style="text;html=1;align=left;verticalAlign=middle;resizable=0;points=[];autosize=1;strokeColor=none;fillColor=none;" vertex="1" parent="zkfFHV4jXpPFQw0GAbJ--0">
          <mxGeometry y="86" width="320" height="30" as="geometry" />
        </mxCell>
        <mxCell id="Kcbh_COPr04Var9moPHK-2" value="login(email: str, password: str) -&amp;gt; str" style="text;html=1;align=left;verticalAlign=middle;resizable=0;points=[];autosize=1;strokeColor=none;fillColor=none;" vertex="1" parent="zkfFHV4jXpPFQw0GAbJ--0">
          <mxGeometry y="116" width="320" height="30" as="geometry" />
        </mxCell>
        <mxCell id="Kcbh_COPr04Var9moPHK-3" value="update_profile(emal: str,) -&amp;gt; str" style="text;html=1;align=left;verticalAlign=middle;resizable=0;points=[];autosize=1;strokeColor=none;fillColor=none;" vertex="1" parent="zkfFHV4jXpPFQw0GAbJ--0">
          <mxGeometry y="146" width="320" height="30" as="geometry" />
        </mxCell>
        <mxCell id="Kcbh_COPr04Var9moPHK-4" value="User" style="swimlane;fontStyle=2;align=center;verticalAlign=top;childLayout=stackLayout;horizontal=1;startSize=26;horizontalStack=0;resizeParent=1;resizeLast=0;collapsible=1;marginBottom=0;rounded=0;shadow=0;strokeWidth=1;" vertex="1" parent="WIyWlLk6GJQsqaUBKTNV-1">
          <mxGeometry x="160" y="400" width="320" height="170" as="geometry">
            <mxRectangle x="230" y="140" width="160" height="26" as="alternateBounds" />
          </mxGeometry>
        </mxCell>
        <mxCell id="Kcbh_COPr04Var9moPHK-5" value="email: str&#xa;password: str" style="text;align=left;verticalAlign=top;spacingLeft=4;spacingRight=4;overflow=hidden;rotatable=0;points=[[0,0.5],[1,0.5]];portConstraint=eastwest;" vertex="1" parent="Kcbh_COPr04Var9moPHK-4">
          <mxGeometry y="26" width="320" height="44" as="geometry" />
        </mxCell>
        <mxCell id="Kcbh_COPr04Var9moPHK-6" value="" style="line;html=1;strokeWidth=1;align=left;verticalAlign=middle;spacingTop=-1;spacingLeft=3;spacingRight=3;rotatable=0;labelPosition=right;points=[];portConstraint=eastwest;" vertex="1" parent="Kcbh_COPr04Var9moPHK-4">
          <mxGeometry y="70" width="320" height="8" as="geometry" />
        </mxCell>
        <mxCell id="Kcbh_COPr04Var9moPHK-7" value="_init_(email: str, password: str)" style="text;align=left;verticalAlign=top;spacingLeft=4;spacingRight=4;overflow=hidden;rotatable=0;points=[[0,0.5],[1,0.5]];portConstraint=eastwest;" vertex="1" parent="Kcbh_COPr04Var9moPHK-4">
          <mxGeometry y="78" width="320" height="26" as="geometry" />
        </mxCell>
        <mxCell id="Kcbh_COPr04Var9moPHK-8" value="set_password(password: str) -&amp;gt; None" style="text;html=1;align=left;verticalAlign=middle;resizable=0;points=[];autosize=1;strokeColor=none;fillColor=none;" vertex="1" parent="Kcbh_COPr04Var9moPHK-4">
          <mxGeometry y="104" width="320" height="30" as="geometry" />
        </mxCell>
        <mxCell id="Kcbh_COPr04Var9moPHK-9" value="update_data (key : str , value : str) -&amp;gt; None" style="text;html=1;align=left;verticalAlign=middle;resizable=0;points=[];autosize=1;strokeColor=none;fillColor=none;" vertex="1" parent="Kcbh_COPr04Var9moPHK-4">
          <mxGeometry y="134" width="320" height="30" as="geometry" />
        </mxCell>
        <mxCell id="Kcbh_COPr04Var9moPHK-14" value="" style="edgeStyle=orthogonalEdgeStyle;rounded=0;orthogonalLoop=1;jettySize=auto;html=1;" edge="1" parent="WIyWlLk6GJQsqaUBKTNV-1" source="Kcbh_COPr04Var9moPHK-12" target="Kcbh_COPr04Var9moPHK-13">
          <mxGeometry relative="1" as="geometry" />
        </mxCell>
        <mxCell id="Kcbh_COPr04Var9moPHK-12" value="Frontend (Cliente)" style="rounded=0;whiteSpace=wrap;html=1;" vertex="1" parent="WIyWlLk6GJQsqaUBKTNV-1">
          <mxGeometry x="70" y="820" width="144" height="60" as="geometry" />
        </mxCell>
        <mxCell id="Kcbh_COPr04Var9moPHK-16" value="" style="edgeStyle=orthogonalEdgeStyle;rounded=0;orthogonalLoop=1;jettySize=auto;html=1;" edge="1" parent="WIyWlLk6GJQsqaUBKTNV-1" source="Kcbh_COPr04Var9moPHK-13" target="Kcbh_COPr04Var9moPHK-15">
          <mxGeometry relative="1" as="geometry" />
        </mxCell>
        <mxCell id="Kcbh_COPr04Var9moPHK-13" value="Backend (API)" style="rounded=0;whiteSpace=wrap;html=1;" vertex="1" parent="WIyWlLk6GJQsqaUBKTNV-1">
          <mxGeometry x="294" y="820" width="146" height="60" as="geometry" />
        </mxCell>
        <mxCell id="Kcbh_COPr04Var9moPHK-18" value="" style="edgeStyle=orthogonalEdgeStyle;rounded=0;orthogonalLoop=1;jettySize=auto;html=1;" edge="1" parent="WIyWlLk6GJQsqaUBKTNV-1" source="Kcbh_COPr04Var9moPHK-15" target="Kcbh_COPr04Var9moPHK-17">
          <mxGeometry relative="1" as="geometry" />
        </mxCell>
        <mxCell id="Kcbh_COPr04Var9moPHK-15" value="UserManagement&lt;br&gt;(Controlador de Logica del Sistema)" style="rounded=0;whiteSpace=wrap;html=1;" vertex="1" parent="WIyWlLk6GJQsqaUBKTNV-1">
          <mxGeometry x="294" y="960" width="146" height="60" as="geometry" />
        </mxCell>
        <mxCell id="Kcbh_COPr04Var9moPHK-17" value="Database (In-Memory)&lt;div&gt;User(users dict)&lt;/div&gt;" style="rounded=0;whiteSpace=wrap;html=1;" vertex="1" parent="WIyWlLk6GJQsqaUBKTNV-1">
          <mxGeometry x="294" y="1100" width="146" height="60" as="geometry" />
        </mxCell>
        <mxCell id="Kcbh_COPr04Var9moPHK-20" value="&#xa;&lt;h3&gt;&lt;strong&gt;Explicación del Diagrama de Arquitectura:&lt;/strong&gt;&lt;/h3&gt;&lt;ol&gt;&lt;li&gt;&lt;p&gt;&lt;strong&gt;Frontend (Cliente):&lt;/strong&gt;&lt;/p&gt;&lt;ul&gt;&lt;li&gt;La capa de &lt;strong&gt;interfaz de usuario&lt;/strong&gt; interactúa con el sistema de backend a través de una API.&lt;/li&gt;&lt;li&gt;Los usuarios ingresan sus datos (login, creación, actualización) a través del frontend.&lt;/li&gt;&lt;/ul&gt;&lt;/li&gt;&lt;li&gt;&lt;p&gt;&lt;strong&gt;Backend (API):&lt;/strong&gt;&lt;/p&gt;&lt;ul&gt;&lt;li&gt;El backend recibe las solicitudes desde el cliente y las pasa al controlador de lógica de negocio, en este caso, el &lt;strong&gt;UserManagement&lt;/strong&gt;.&lt;/li&gt;&lt;li&gt;Se comunica con la base de datos (que es un diccionario en memoria en este caso) para almacenar, recuperar y modificar los datos de los usuarios.&lt;/li&gt;&lt;/ul&gt;&lt;/li&gt;&lt;li&gt;&lt;p&gt;&lt;strong&gt;UserManagement (Controlador de lógica):&lt;/strong&gt;&lt;/p&gt;&lt;ul&gt;&lt;li&gt;Esta capa es responsable de la lógica de negocio, como la creación de usuarios, login, eliminación y actualización de perfiles.&lt;/li&gt;&lt;li&gt;Administra el almacenamiento en la base de datos (diccionario &lt;code&gt;users&lt;/code&gt;) y maneja las operaciones sobre los datos de usuario.&lt;/li&gt;&lt;/ul&gt;&lt;/li&gt;&lt;li&gt;&lt;p&gt;&lt;strong&gt;Database (In-Memory):&lt;/strong&gt;&lt;/p&gt;&lt;ul&gt;&lt;li&gt;Para este ejemplo, los usuarios se almacenan en un diccionario dentro del sistema, pero en un entorno real, esto podría ser una base de datos relacional o NoSQL.&lt;/li&gt;&lt;li&gt;Se almacena la información del usuario (correo electrónico y contraseña) en memoria.&lt;/li&gt;&lt;/ul&gt;&lt;/li&gt;&lt;/ol&gt;&#xa;&#xa;" style="shape=note;whiteSpace=wrap;html=1;backgroundOutline=1;darkOpacity=0.05;" vertex="1" parent="WIyWlLk6GJQsqaUBKTNV-1">
          <mxGeometry x="-780" y="620" width="460" height="540" as="geometry" />
        </mxCell>
        <mxCell id="Kcbh_COPr04Var9moPHK-25" value="&#xa;&lt;h3&gt;&lt;strong&gt;Explicación del Diagrama de Clases&lt;/strong&gt;&lt;/h3&gt;&lt;ol&gt;&lt;li&gt;&lt;p&gt;&lt;strong&gt;Clase &lt;code&gt;UserManagement&lt;/code&gt;:&lt;/strong&gt;&lt;/p&gt;&lt;ul&gt;&lt;li&gt;&lt;strong&gt;Atributo:&lt;/strong&gt;&lt;ul&gt;&lt;li&gt;&lt;code&gt;users&lt;/code&gt;: Un diccionario que almacena los usuarios, con el &lt;code&gt;email&lt;/code&gt; como clave y un objeto &lt;code&gt;User&lt;/code&gt; como valor.&lt;/li&gt;&lt;/ul&gt;&lt;/li&gt;&lt;li&gt;&lt;strong&gt;Métodos:&lt;/strong&gt;&lt;ul&gt;&lt;li&gt;&lt;code&gt;create_user(email: str, password: str) -&amp;gt; str&lt;/code&gt;: Crea un nuevo usuario si el &lt;code&gt;email&lt;/code&gt; no existe en el diccionario &lt;code&gt;users&lt;/code&gt;.&lt;/li&gt;&lt;li&gt;&lt;code&gt;delete_user(email: str) -&amp;gt; str&lt;/code&gt;: Elimina un usuario por su &lt;code&gt;email&lt;/code&gt; si existe en el diccionario &lt;code&gt;users&lt;/code&gt;.&lt;/li&gt;&lt;li&gt;&lt;code&gt;login(email: str, password: str) -&amp;gt; str&lt;/code&gt;: Verifica las credenciales de un usuario.&lt;/li&gt;&lt;li&gt;&lt;code&gt;update_profile(email: str, **kwargs: dict) -&amp;gt; str&lt;/code&gt;: Actualiza los datos del usuario, con validaciones de campo como el &lt;code&gt;email&lt;/code&gt; (no actualizable).&lt;/li&gt;&lt;/ul&gt;&lt;/li&gt;&lt;/ul&gt;&lt;/li&gt;&lt;li&gt;&lt;p&gt;&lt;strong&gt;Clase &lt;code&gt;User&lt;/code&gt;:&lt;/strong&gt;&lt;/p&gt;&lt;ul&gt;&lt;li&gt;&lt;strong&gt;Atributos:&lt;/strong&gt;&lt;ul&gt;&lt;li&gt;&lt;code&gt;email&lt;/code&gt;: El correo electrónico del usuario, utilizado como identificador único.&lt;/li&gt;&lt;li&gt;&lt;code&gt;password&lt;/code&gt;: La contraseña del usuario.&lt;/li&gt;&lt;/ul&gt;&lt;/li&gt;&lt;li&gt;&lt;strong&gt;Métodos:&lt;/strong&gt;&lt;ul&gt;&lt;li&gt;&lt;code&gt;__init__(email: str, password: str)&lt;/code&gt;: Constructor de la clase, que inicializa el usuario con su &lt;code&gt;email&lt;/code&gt; y &lt;code&gt;password&lt;/code&gt;.&lt;/li&gt;&lt;li&gt;&lt;code&gt;set_password(password: str) -&amp;gt; None&lt;/code&gt;: Método para establecer o cambiar la contraseña del usuario.&lt;/li&gt;&lt;li&gt;&lt;code&gt;update_data(key: str, value: str) -&amp;gt; None&lt;/code&gt;: Permite actualizar la información del usuario, con la excepción de &lt;code&gt;email&lt;/code&gt; (que no se puede cambiar).&lt;/li&gt;&lt;/ul&gt;&lt;/li&gt;&lt;/ul&gt;&lt;/li&gt;&lt;/ol&gt;&#xa;&#xa;" style="shape=note;whiteSpace=wrap;html=1;backgroundOutline=1;darkOpacity=0.05;" vertex="1" parent="WIyWlLk6GJQsqaUBKTNV-1">
          <mxGeometry x="-780" y="30" width="460" height="490" as="geometry" />
        </mxCell>
      </root>
    </mxGraphModel>
  </diagram>
</mxfile>
